<svg width="44" height="43" viewBox="0 0 44 43" fill="none" xmlns="http://www.w3.org/2000/svg">
<g id="Group 12">
<ellipse id="Ellipse 6" cx="22" cy="21.4359" rx="22" ry="21.4359" fill="#FAFAFA"/>
<path id="Vector" d="M11.3636 32C10.7136 32 10.1574 31.775 9.69491 31.3249C9.23242 30.8749 9.00079 30.3333 9 29.7V15.9C9 15.2675 9.23164 14.7262 9.69491 14.2762C10.1582 13.8262 10.7144 13.6008 11.3636 13.6H15.0864L17.2727 11.3H24.3636V13.6H18.3068L16.15 15.9H11.3636V29.7H30.2727V19.35H32.6364V29.7C32.6364 30.3325 32.4051 30.8741 31.9426 31.3249C31.4802 31.7757 30.9235 32.0008 30.2727 32H11.3636ZM30.2727 15.9V13.6H27.9091V11.3H30.2727V9H32.6364V11.3H35V13.6H32.6364V15.9H30.2727ZM20.8182 27.975C22.2955 27.975 23.5513 27.4721 24.5858 26.4662C25.6203 25.4603 26.1372 24.2383 26.1364 22.8C26.1364 21.3625 25.6195 20.1408 24.5858 19.1349C23.5521 18.1291 22.2962 17.6258 20.8182 17.625C19.3409 17.625 18.0854 18.1283 17.0517 19.1349C16.018 20.1416 15.5008 21.3633 15.5 22.8C15.5 24.2375 16.0172 25.4596 17.0517 26.4662C18.0862 27.4728 19.3417 27.9758 20.8182 27.975ZM20.8182 25.675C19.9909 25.675 19.2917 25.3971 18.7205 24.8412C18.1492 24.2854 17.8636 23.605 17.8636 22.8C17.8636 21.995 18.1492 21.3146 18.7205 20.7587C19.2917 20.2029 19.9909 19.925 20.8182 19.925C21.6455 19.925 22.3447 20.2029 22.9159 20.7587C23.4871 21.3146 23.7727 21.995 23.7727 22.8C23.7727 23.605 23.4871 24.2854 22.9159 24.8412C22.3447 25.3971 21.6455 25.675 20.8182 25.675Z" fill="url(#paint0_linear_2_361)"/>
</g>
<defs>
<linearGradient id="paint0_linear_2_361" x1="9" y1="19.8598" x2="34.9939" y2="21.2537" gradientUnits="userSpaceOnUse">
<stop stop-color="#0A8ED9" stop-opacity="0.5"/>
<stop offset="1" stop-color="#0A8ED9"/>
</linearGradient>
</defs>
</svg>
