<svg width="24" height="24" viewBox="0 0 24 24" fill="none" xmlns="http://www.w3.org/2000/svg">
<g id="IC_Location">
<path id="Vector" d="M12 20.8995L7.05022 15.9497C6.07127 14.9708 5.40459 13.7235 5.1345 12.3656C4.86441 11.0077 5.00304 9.60029 5.53285 8.32121C6.06267 7.04213 6.95988 5.94889 8.11102 5.17972C9.26216 4.41056 10.6155 4.00002 12 4.00002C13.3845 4.00002 14.7378 4.41056 15.889 5.17972C17.0401 5.94889 17.9373 7.04213 18.4671 8.32121C18.997 9.60029 19.1356 11.0077 18.8655 12.3656C18.5954 13.7235 17.9287 14.9708 16.9498 15.9497L12 20.8995ZM15.85 14.85C16.6114 14.0885 17.1298 13.1184 17.3399 12.0623C17.5499 11.0062 17.442 9.91153 17.03 8.91672C16.6179 7.92191 15.92 7.07164 15.0247 6.47342C14.1294 5.8752 13.0768 5.5559 12 5.5559C10.9232 5.5559 9.87061 5.8752 8.97529 6.47342C8.07997 7.07164 7.38214 7.92191 6.97004 8.91672C6.55795 9.91153 6.4501 11.0062 6.66013 12.0623C6.87016 13.1184 7.38864 14.0885 8.15 14.85L12 18.6999L15.85 14.85ZM12 12.5555C11.5874 12.5555 11.1918 12.3916 10.9001 12.0999C10.6083 11.8082 10.4444 11.4125 10.4444 11C10.4444 10.5874 10.6083 10.1917 10.9001 9.90001C11.1918 9.60829 11.5874 9.4444 12 9.4444C12.4126 9.4444 12.8082 9.60829 13.0999 9.90001C13.3917 10.1917 13.5556 10.5874 13.5556 11C13.5556 11.4125 13.3917 11.8082 13.0999 12.0999C12.8082 12.3916 12.4126 12.5555 12 12.5555Z" fill="white"/>
</g>
</svg>
