<svg width="24" height="24" viewBox="0 0 24 24" fill="none" xmlns="http://www.w3.org/2000/svg">
<g id="IC_Message" clip-path="url(#clip0_1_26)">
<path id="Vector" d="M8.23279 19.0592L3.99999 20L4.94079 15.7672C4.32122 14.6083 3.99802 13.3141 3.99999 12C3.99999 7.5816 7.58159 4 12 4C16.4184 4 20 7.5816 20 12C20 16.4184 16.4184 20 12 20C10.6859 20.002 9.39168 19.6788 8.23279 19.0592ZM8.46479 17.3688L8.98719 17.6488C9.91403 18.1441 10.9491 18.4022 12 18.4C13.2658 18.4 14.5032 18.0246 15.5556 17.3214C16.6081 16.6182 17.4284 15.6186 17.9128 14.4492C18.3972 13.2797 18.524 11.9929 18.277 10.7514C18.0301 9.50994 17.4205 8.36957 16.5255 7.47451C15.6304 6.57946 14.49 5.96992 13.2486 5.72297C12.0071 5.47603 10.7203 5.60277 9.55082 6.08717C8.38137 6.57157 7.38183 7.39187 6.67859 8.44435C5.97535 9.49682 5.59999 10.7342 5.59999 12C5.59999 13.0672 5.85999 14.0944 6.35199 15.0128L6.63119 15.5352L6.10719 17.8928L8.46479 17.3688Z" fill="white"/>
<circle id="Ellipse 1" cx="17" cy="7" r="3" fill="#FA0E0E"/>
</g>
<defs>
<clipPath id="clip0_1_26">
<rect width="24" height="24" fill="white"/>
</clipPath>
</defs>
</svg>
