<svg width="26" height="24" viewBox="0 0 26 24" fill="none" xmlns="http://www.w3.org/2000/svg">
<g id="IC_Search">
<path id="Vector" d="M17.5896 15.5128L21.0627 18.8855L19.9153 20L16.443 16.6266C15.1511 17.6325 13.5441 18.1797 11.8883 18.1774C7.85982 18.1774 4.59033 15.0017 4.59033 11.0887C4.59033 7.17574 7.85982 4 11.8883 4C15.9168 4 19.1863 7.17574 19.1863 11.0887C19.1886 12.6971 18.6253 14.2579 17.5896 15.5128ZM15.963 14.9284C16.9921 13.9005 17.5668 12.5225 17.5645 11.0887C17.5645 8.04214 15.024 5.57527 11.8883 5.57527C8.7518 5.57527 6.2121 8.04214 6.2121 11.0887C6.2121 14.1345 8.7518 16.6021 11.8883 16.6021C13.3645 16.6044 14.7831 16.0462 15.8414 15.0466L15.963 14.9284Z" fill="#838383"/>
</g>
</svg>
