<svg width="27" height="13" viewBox="0 0 27 13" fill="none" xmlns="http://www.w3.org/2000/svg">
<g id="Container">
<rect x="0.375" y="0.5" width="26.25" height="12.1875" rx="1.28336" fill="#EF4444"/>
<g id="-">
<path d="M4.79587 10.1094V3.07812H7.38452C7.91483 3.07812 8.35976 3.17883 8.71929 3.38025C9.08108 3.58166 9.3541 3.85861 9.53836 4.21109C9.72487 4.56128 9.81812 4.95953 9.81812 5.40585C9.81812 5.85675 9.72487 6.25729 9.53836 6.60748C9.35185 6.95767 9.07658 7.23347 8.71255 7.43489C8.34852 7.63402 7.90023 7.73358 7.36767 7.73358H5.65201V6.68645H7.19913C7.50923 6.68645 7.76315 6.63151 7.9609 6.52165C8.15864 6.41179 8.3047 6.26073 8.39908 6.06847C8.49571 5.8762 8.54402 5.65533 8.54402 5.40585C8.54402 5.15637 8.49571 4.93665 8.39908 4.74667C8.3047 4.5567 8.15752 4.40907 7.95753 4.30379C7.75978 4.19621 7.50474 4.14243 7.19239 4.14243H6.04638V10.1094H4.79587Z" fill="white"/>
<path d="M13.2435 10.1094H10.9043V3.07812H13.2907C13.9761 3.07812 14.5648 3.21889 15.0569 3.50041C15.5513 3.77965 15.9311 4.18134 16.1962 4.70547C16.4614 5.22961 16.594 5.85675 16.594 6.58688C16.594 7.3193 16.4602 7.94873 16.1928 8.47516C15.9277 9.00159 15.5446 9.40556 15.0435 9.68709C14.5446 9.96861 13.9446 10.1094 13.2435 10.1094ZM12.1548 9.00731H13.1829C13.6637 9.00731 14.0648 8.91804 14.3862 8.73952C14.7075 8.5587 14.9491 8.28976 15.1109 7.93271C15.2727 7.57336 15.3536 7.12475 15.3536 6.58688C15.3536 6.04901 15.2727 5.60269 15.1109 5.24792C14.9491 4.89087 14.7098 4.62422 14.3929 4.44798C14.0783 4.26945 13.6873 4.18019 13.2199 4.18019H12.1548V9.00731Z" fill="white"/>
<path d="M17.7821 10.1094V3.07812H22.2044V4.14586H19.0326V6.05473H21.901V7.12247H19.0326V10.1094H17.7821Z" fill="white"/>
<path d="M4.79587 10.1094V3.07812H7.38452C7.91483 3.07812 8.35976 3.17883 8.71929 3.38025C9.08108 3.58166 9.3541 3.85861 9.53836 4.21109C9.72487 4.56128 9.81812 4.95953 9.81812 5.40585C9.81812 5.85675 9.72487 6.25729 9.53836 6.60748C9.35185 6.95767 9.07658 7.23347 8.71255 7.43489C8.34852 7.63402 7.90023 7.73358 7.36767 7.73358H5.65201V6.68645H7.19913C7.50923 6.68645 7.76315 6.63151 7.9609 6.52165C8.15864 6.41179 8.3047 6.26073 8.39908 6.06847C8.49571 5.8762 8.54402 5.65533 8.54402 5.40585C8.54402 5.15637 8.49571 4.93665 8.39908 4.74667C8.3047 4.5567 8.15752 4.40907 7.95753 4.30379C7.75978 4.19621 7.50474 4.14243 7.19239 4.14243H6.04638V10.1094H4.79587Z" stroke="white" stroke-width="0.583334"/>
<path d="M13.2435 10.1094H10.9043V3.07812H13.2907C13.9761 3.07812 14.5648 3.21889 15.0569 3.50041C15.5513 3.77965 15.9311 4.18134 16.1962 4.70547C16.4614 5.22961 16.594 5.85675 16.594 6.58688C16.594 7.3193 16.4602 7.94873 16.1928 8.47516C15.9277 9.00159 15.5446 9.40556 15.0435 9.68709C14.5446 9.96861 13.9446 10.1094 13.2435 10.1094ZM12.1548 9.00731H13.1829C13.6637 9.00731 14.0648 8.91804 14.3862 8.73952C14.7075 8.5587 14.9491 8.28976 15.1109 7.93271C15.2727 7.57336 15.3536 7.12475 15.3536 6.58688C15.3536 6.04901 15.2727 5.60269 15.1109 5.24792C14.9491 4.89087 14.7098 4.62422 14.3929 4.44798C14.0783 4.26945 13.6873 4.18019 13.2199 4.18019H12.1548V9.00731Z" stroke="white" stroke-width="0.583334"/>
<path d="M17.7821 10.1094V3.07812H22.2044V4.14586H19.0326V6.05473H21.901V7.12247H19.0326V10.1094H17.7821Z" stroke="white" stroke-width="0.583334"/>
</g>
</g>
</svg>
